<?xml version="1.0" encoding="utf-8"?><svg width="24px" height="24px" viewBox="0 0 24 24" version="1.1" xmlns="http://www.w3.org/2000/svg" xmlns:xlink="http://www.w3.org/1999/xlink"><defs><path d="M12,2 C7.581722,2 4,5.581722 4,10 C4.00435812,11.7714969 4.41127263,13.5188357 5.19,15.11 C6.15517666,17.0237439 7.49502409,18.7240579 9.13,20.11 C9.86916736,20.7592093 10.6620019,21.3446357 11.5,21.86 L12,22.14 L12.5,21.86 C13.8750156,21.0120029 15.1296156,19.9827599 16.23,18.8 C17.2698142,17.7023203 18.1394508,16.4551671 18.81,15.1 C19.5872532,13.5118707 19.9941287,11.7681184 20,10 C20,5.581722 16.418278,2 12,2 Z M12,13 C10.3431458,13 9,11.6568542 9,10 C9,8.34314575 10.3431458,7 12,7 C13.6568542,7 15,8.34314575 15,10 C15,10.7956495 14.6839295,11.5587112 14.1213203,12.1213203 C13.5587112,12.6839295 12.7956495,13 12,13 Z" id="path-1"></path></defs><g id="icons/pin-filled" stroke="none" stroke-width="1" fill="none" fill-rule="evenodd"><mask id="mask-2" fill="white"><use xlink:href="#path-1"></use></mask><use id="Shape" stroke="#FAFAFA" fill="#BDBDBD" fill-rule="nonzero" xlink:href="#path-1"></use></g></svg>